{
  "accessors": [
    {
      "bufferView": 2,
      "componentType": 5126,
      "count": 145,
      "max": [
        1,
        0.7576749920845032,
        1
      ],
      "min": [
        -1,
        -0.7576749920845032,
        -1
      ],
      "type": "VEC3"
    },
    {
      "bufferView": 2,
      "byteOffset": 1740,
      "componentType": 5126,
      "count": 145,
      "max": [
        0.9998152256011963,
        1,
        0.9998151063919067
      ],
      "min": [
        -0.9998152256011963,
        -0.7071071863174438,
        -0.9998152256011963
      ],
      "type": "VEC3"
    },
    {
      "bufferView": 3,
      "componentType": 5126,
      "count": 145,
      "max": [
        0.8788599967956543,
        0.9998130202293396,
        0.8822799921035767,
        1
      ],
      "min": [
        -0.7071070075035095,
        -0.9998149871826172,
        -1,
        1
      ],
      "type": "VEC4"
    },
    {
      "bufferView": 1,
      "componentType": 5126,
      "count": 145,
      "max": [
        0.9998459815979004,
        0.9998499751091003
      ],
      "min": [
        0.00014978900435380638,
        0.00014978900435380638
      ],
      "type": "VEC2"
    },
    {
      "bufferView": 0,
      "componentType": 5125,
      "count": 192,
      "type": "SCALAR"
    }
  ],
  "asset": {
    "extras": {
      "author": "Kelsey113 (https://sketchfab.com/caboose113)",
      "license": "CC-BY-4.0 (http://creativecommons.org/licenses/by/4.0/)",
      "source": "https://sketchfab.com/3d-models/chaos-emerald-3a9d89ec0d6642ee8a8fc42a1361c701",
      "title": "Chaos Emerald"
    },
    "generator": "Sketchfab-12.66.0",
    "version": "2.0"
  },
  "bufferViews": [
    {
      "buffer": 0,
      "byteLength": 768,
      "name": "floatBufferViews",
      "target": 34963
    },
    {
      "buffer": 0,
      "byteLength": 1160,
      "byteOffset": 768,
      "byteStride": 8,
      "name": "floatBufferViews",
      "target": 34962
    },
    {
      "buffer": 0,
      "byteLength": 3480,
      "byteOffset": 1928,
      "byteStride": 12,
      "name": "floatBufferViews",
      "target": 34962
    },
    {
      "buffer": 0,
      "byteLength": 2320,
      "byteOffset": 5408,
      "byteStride": 16,
      "name": "floatBufferViews",
      "target": 34962
    },
    {
      "buffer": 0,
      "byteLength": 976268,
      "byteOffset": 7728,
      "name": "DefaultMaterial_baseColor.png"
    },
    {
      "buffer": 0,
      "byteLength": 2287,
      "byteOffset": 983996,
      "name": "DefaultMaterial_metallicRoughness.png"
    },
    {
      "buffer": 0,
      "byteLength": 2603553,
      "byteOffset": 986283,
      "name": "DefaultMaterial_emissive.jpeg"
    },
    {
      "buffer": 0,
      "byteLength": 149810,
      "byteOffset": 3589836,
      "name": "DefaultMaterial_normal.png"
    }
  ],
  "buffers": [
    {
      "uri": "chaos_emerald.bin",
      "byteLength": 3739648
    }
  ],
  "images": [
    {
      "uri": "texture_0.png"
    },
    {
      "uri": "texture_1.png"
    },
    {
      "uri": "texture_2.jpg"
    },
    {
      "uri": "texture_3.png"
    }
  ],
  "materials": [
    {
      "alphaMode": "BLEND",
      "doubleSided": true,
      "emissiveFactor": [
        1,
        1,
        1
      ],
      "emissiveTexture": {
        "index": 2
      },
      "name": "DefaultMaterial",
      "normalTexture": {
        "index": 3
      },
      "occlusionTexture": {
        "index": 1
      },
      "pbrMetallicRoughness": {
        "baseColorTexture": {
          "index": 0
        },
        "metallicRoughnessTexture": {
          "index": 1
        }
      }
    }
  ],
  "meshes": [
    {
      "name": "defaultMaterial",
      "primitives": [
        {
          "attributes": {
            "NORMAL": 1,
            "POSITION": 0,
            "TANGENT": 2,
            "TEXCOORD_0": 3
          },
          "indices": 4,
          "material": 0,
          "mode": 4
        }
      ]
    }
  ],
  "nodes": [
    {
      "children": [
        1
      ],
      "matrix": [
        0.4360415041446686,
        0,
        0,
        0,
        0,
        9.682066351871934e-17,
        -0.4360415041446686,
        0,
        0,
        0.4360415041446686,
        9.682066351871934e-17,
        0,
        0,
        0,
        0,
        1
      ],
      "name": "Sketchfab_model"
    },
    {
      "children": [
        2
      ],
      "matrix": [
        1,
        0,
        0,
        0,
        0,
        -4.371139006309477e-8,
        0.999999999999999,
        0,
        0,
        -0.999999999999999,
        -4.371139006309477e-8,
        0,
        0,
        0,
        0,
        1
      ],
      "name": "Collada visual scene group"
    },
    {
      "children": [
        3
      ],
      "name": "Gem.001"
    },
    {
      "mesh": 0,
      "name": "defaultMaterial"
    }
  ],
  "samplers": [
    {
      "magFilter": 9729,
      "minFilter": 9987,
      "wrapS": 10497,
      "wrapT": 10497
    }
  ],
  "scene": 0,
  "scenes": [
    {
      "name": "Sketchfab_Scene",
      "nodes": [
        0
      ]
    }
  ],
  "textures": [
    {
      "sampler": 0,
      "source": 0
    },
    {
      "sampler": 0,
      "source": 1
    },
    {
      "sampler": 0,
      "source": 2
    },
    {
      "sampler": 0,
      "source": 3
    }
  ]
}